<?xml version="1.0" encoding="UTF-8"?>
<svg id="Layer_1" data-name="Layer 1" xmlns="http://www.w3.org/2000/svg" viewBox="0 0 24 24">
  <defs>
    <style>
      .cls-1 {
        fill: #30343a;
      }

      .cls-2 {
        fill: #bbbdbf;
      }
    </style>
  </defs>
  <g>
    <path class="cls-1" d="M17.09,14.58c-.19.35-.53.6-.94.65-.05.01-.1.01-.15.01-.5,0-1.09-.28-1.67-.77l-.03-.02s-.03-.04-.09-.09c-.18-.16-.55-.5-1.02-.98l-.04-.04h-.06c-.54.02-1.09.08-1.62.18-.59.09-1.16.22-1.72.39h-.06s-.03.07-.03.07c-.24.48-.51.95-.79,1.4-.81,1.3-1.48,1.92-2.04,1.92-.31-.01-.59-.19-.73-.47-.22-.43-.2-.94.05-1.35.54-.84,1.6-1.55,3.06-2.04l.05-.02.02-.05c.5-.98.93-2,1.3-3.04l.02-.06-.03-.05c-.26-.4-.47-.84-.62-1.29-.47-1.54-.07-2.74.58-3.02.1-.04.21-.06.32-.06.21.01.41.08.56.22.15.13.27.28.36.45.29.53.15,1.74-.39,3.42-.01.04-.02.07-.03.1-.01.03-.03.07-.04.1v.06s.02.05.02.05l.03.04.03.04c.6.83,1.26,1.61,1.97,2.34l.04.04h.48c.21,0,.39,0,.56.01,1.47.09,2.42.44,2.7,1,.13.27.1.59-.05.86Z"/>
    <path class="cls-1" d="M24,12c0,6.63-5.37,12-12,12S0,18.63,0,12,5.38,0,12,0c5.59,0,10.29,3.82,11.62,9,.19.73.31,1.49.35,2.27.02.24.03.49.03.73Z"/>
  </g>
  <path class="cls-2" d="M17.14,13.72c-.28-.56-1.23-.91-2.7-1-.17-.01-.35-.01-.56-.01h-.48l-.04-.04c-.71-.73-1.37-1.51-1.97-2.34l-.03-.04-.03-.04-.03-.05v-.06s.04-.07.05-.1c.01-.03.02-.06.03-.1.54-1.68.68-2.89.39-3.42-.09-.17-.21-.32-.36-.45-.15-.14-.35-.21-.56-.22-.11,0-.22.02-.32.06-.65.28-1.05,1.48-.58,3.02.15.45.36.89.62,1.29l.03.05-.02.06c-.37,1.04-.8,2.06-1.3,3.04l-.02.05-.05.02c-1.46.49-2.52,1.2-3.06,2.04-.25.41-.27.92-.05,1.35.14.28.42.46.73.47.56,0,1.23-.62,2.04-1.92.28-.45.55-.92.79-1.4l.03-.06h.06c.56-.18,1.13-.31,1.72-.4.53-.1,1.08-.16,1.62-.18h.06l.04.04c.47.48.84.82,1.02.98.06.05.09.09.09.09l.03.02c.58.49,1.17.77,1.67.77.05,0,.1,0,.15-.01.41-.05.75-.3.94-.65.15-.27.18-.59.05-.86ZM8.61,14.59c-.07.14-.16.27-.24.4-.97,1.54-1.44,1.67-1.52,1.68h-.01c-.08,0-.15-.06-.21-.2-.04-.08-.06-.18-.06-.28,0-.13.04-.25.1-.37.36-.54.96-1.01,1.79-1.41l.37-.18-.22.36ZM10.54,8.76c-.37-1.22-.1-2,.16-2.22v-.06h.13c.16,0,.31.23.38.36.23.39-.02,1.5-.26,2.35l-.1.33-.14-.31c-.07-.15-.12-.3-.17-.45ZM12.33,12.78c-.28.03-.56.06-.82.1-.39.06-.79.14-1.19.24l-.26.06.11-.24c.29-.61.55-1.22.77-1.81l.09-.21.56.7c.3.36.59.7.82.94l.18.2-.26.02ZM16.55,14.27c-.09.18-.26.32-.46.35h-.08c-.48,0-1.1-.47-1.29-.64-.06-.04-.13-.12-.31-.28l-.37-.35h.36c1.33.08,2.06.39,2.17.65.04.09.03.19-.02.27Z"/>
</svg>