<?xml version="1.0" encoding="UTF-8"?>
<svg id="Layer_1" data-name="Layer 1" xmlns="http://www.w3.org/2000/svg" viewBox="0 0 24 24">
  <defs>
    <style>
      .cls-1 {
        fill: #2a333a;
      }

      .cls-2 {
        fill: #333132;
      }

      .cls-3 {
        fill: #bbbdbf;
      }
    </style>
  </defs>
  <path class="cls-1" d="M12,0C18.63,0,24,5.37,24,12s-5.37,12-12,12S0,18.63,0,12,5.37,0,12,0"/>
  <path class="cls-2" d="M17.37,9.2c-.98,0-1.79.35-2.43,1.04-.19.2-.35.43-.48.68l-4.36-4.37h-2.18l-3.98,10.21,7.21,7.21c.28.02.56.03.85.03,5.91,0,10.81-4.27,11.81-9.88l-4.04-4.04h0c-.61-.58-1.41-.88-2.4-.88"/>
  <path class="cls-3" d="M10.39,12.73l-1.41-3.79-1.38,3.79h2.79ZM14.19,16.76h-2.24l-.89-2.32h-4.08l-.84,2.32h-2.19l3.98-10.21h2.18l4.09,10.21Z"/>
  <path class="cls-3" d="M18.95,12.43c-.01-.57-.16-1-.44-1.29-.28-.29-.62-.44-1.02-.44-.43,0-.78.16-1.06.47-.28.31-.42.73-.41,1.27h2.92ZM18.84,14.41l1.95.33c-.25.71-.65,1.26-1.19,1.63-.54.37-1.22.56-2.03.56-1.29,0-2.24-.42-2.86-1.26-.49-.67-.73-1.52-.73-2.55,0-1.23.32-2.19.96-2.88.64-.69,1.45-1.04,2.43-1.04,1.1,0,1.97.36,2.6,1.09.64.73.94,1.84.91,3.34h-4.9c.01.58.17,1.03.47,1.35.3.32.68.48,1.13.48.31,0,.56-.08.77-.25.21-.17.37-.44.47-.81"/>
</svg>