<?xml version="1.0" encoding="UTF-8"?>
<svg id="Layer_1" data-name="Layer 1" xmlns="http://www.w3.org/2000/svg" viewBox="0 0 24 24">
  <defs>
    <style>
      .cls-1 {
        fill: #2a333a;
      }

      .cls-2 {
        fill: #333132;
      }

      .cls-3 {
        fill: #bbbdbf;
      }
    </style>
  </defs>
  <path class="cls-1" d="M12,0C18.63,0,24,5.37,24,12s-5.37,12-12,12S0,18.63,0,12,5.37,0,12,0"/>
  <path class="cls-2" d="M23.87,13.74l-3.92-3.92h-1.8v2.59l-2.59-2.59h-1.8v1.47l-4.06-4.06h-2l-3.65,9.38,7.37,7.37c.1,0,.19,0,.29.01.1,0,.19,0,.29,0,6.04,0,11.03-4.46,11.87-10.26"/>
  <path class="cls-3" d="M9.98,12.9l-1.29-3.48-1.27,3.48h2.56ZM13.47,16.62h-2.06l-.82-2.13h-3.75l-.77,2.13h-2.01l3.65-9.38h2l3.76,9.38Z"/>
  <path class="cls-3" d="M18.28,16.62v-1.02c-.25.36-.57.65-.98.86-.4.21-.83.31-1.28.31s-.87-.1-1.23-.3c-.36-.2-.63-.48-.79-.85-.16-.36-.24-.86-.24-1.5v-4.3h1.8v3.13c0,.95.03,1.54.1,1.76.07.21.19.39.36.51.17.13.4.19.67.19.31,0,.58-.08.83-.25.24-.17.41-.38.5-.63.17-.47.13-1.79.13-4.7h1.8v6.8h-1.67Z"/>
</svg>