<?xml version="1.0" encoding="UTF-8"?>
<svg id="Layer_1" data-name="Layer 1" xmlns="http://www.w3.org/2000/svg" viewBox="0 0 24 24">
  <defs>
    <style>
      .cls-1 {
        fill: #2a333a;
      }

      .cls-2 {
        fill: #bbbdbf;
        isolation: isolate;
      }

      .cls-3 {
        fill: #fefefe;
      }
    </style>
  </defs>
  <path class="cls-3" d="M24,12c0,6.63-5.37,12-12,12S0,18.63,0,12,5.37,0,12,0s12,5.37,12,12h0Z"/>
  <path class="cls-2" d="M12.11,24c5.7-.05,10.45-4.08,11.61-9.45l-5.64-5.64-3.56.85,1.91,1.91-1.1.19-.6.27-2.98-2.98-5.49.46-.66,6.89.8.15-1.08.59,6.78,6.78Z"/>
  <path class="cls-1" d="M11.22,12.47c.3-.15.52-.32.68-.5.27-.33.41-.76.41-1.3s-.14-.97-.41-1.35c-.45-.61-1.21-.93-2.29-.94h-4.28v8.85h3.99c.45,0,.87-.04,1.25-.12.38-.08.72-.23,1-.44.25-.19.46-.42.63-.7.26-.42.39-.89.39-1.41s-.12-.94-.34-1.3c-.23-.36-.57-.62-1.02-.78h0ZM7.1,9.91h1.92c.42,0,.77.05,1.05.14.32.13.48.4.48.82,0,.37-.12.63-.36.78-.24.15-.55.22-.94.22h-2.15v-1.95ZM10.14,15.53c-.21.1-.51.16-.9.16h-2.15v-2.36h2.18c.38,0,.67.05.88.15.38.17.56.49.56.95,0,.54-.19.91-.58,1.1h0Z"/>
  <path class="cls-1" d="M18.08,8.9h-3.56v.85h3.56v-.85Z"/>
  <path class="cls-1" d="M19.5,13.1c-.08-.51-.25-.96-.52-1.35-.3-.44-.67-.76-1.13-.97-.46-.2-.97-.31-1.54-.31-.96,0-1.74.3-2.34.91-.6.61-.9,1.47-.9,2.61,0,1.21.33,2.08,1,2.62.67.54,1.43.8,2.3.8,1.05,0,1.88-.32,2.46-.95.31-.33.5-.65.59-.97h-1.84c-.07.09-.14.17-.22.23-.24.2-.56.3-.95.3-.37,0-.68-.08-.94-.25-.43-.26-.66-.72-.68-1.38h4.77c0-.57-.01-1-.06-1.3h0ZM14.83,13.27c.06-.43.21-.76.46-1.01.24-.25.58-.37,1.02-.37.4,0,.74.12,1.01.35.27.24.43.58.46,1.03h-2.95Z"/>
</svg>