<?xml version="1.0" encoding="UTF-8"?>
<svg id="Layer_1" data-name="Layer 1" xmlns="http://www.w3.org/2000/svg" viewBox="0 0 24 24">
  <defs>
    <style>
      .cls-1 {
        fill: #2a333a;
      }

      .cls-1, .cls-2, .cls-3 {
        fill-rule: evenodd;
      }

      .cls-2 {
        fill: #333132;
      }

      .cls-4, .cls-3 {
        fill: #bbbdbf;
      }
    </style>
  </defs>
  <path class="cls-1" d="M12,24l-9-4.51L.75,0h22.5l-2.25,19.49-9,4.51Z"/>
  <path class="cls-2" d="M12,0v24l9-4.51L23.25,0h-11.25Z"/>
  <path class="cls-4" d="M8.34,13.5l.25,2.1,3.4,1.72,3.42-1.72.4-3.59H5.15l-.28-2.36,7.12-3.66h-7.55l-.34-3h15.78l-.28,2.47-6.91,3.53h6.49l-.98,8.57-6.21,3.1-6.21-3.1-.47-4.06h3.02Z"/>
  <path class="cls-3" d="M12.7,8.99l6.91-3.53.28-2.47h-7.89v9.01h3.83l-.4,3.59-3.42,1.72v3.34l6.21-3.1.98-8.57h-6.49Z"/>
</svg>