<?xml version="1.0" encoding="UTF-8"?>
<svg id="Layer_1" data-name="Layer 1" xmlns="http://www.w3.org/2000/svg" viewBox="0 0 64 64">
  <g id="_07_Checklist" data-name="07 Checklist">
    <g>
      <path d="M17.06,17.86c4.93,0,8.93-4,8.93-8.92S21.99,0,17.06,0s-8.93,4.01-8.93,8.93,4.01,8.92,8.93,8.92ZM17.06,2c3.82,0,6.93,3.11,6.93,6.93s-3.11,6.92-6.93,6.92-6.93-3.11-6.93-6.92c0-3.82,3.11-6.93,6.93-6.93h0Z"/>
      <path d="M15.31,11.53c.19.19.44.29.71.29s.52-.11.71-.29l3.79-3.79c.39-.39.39-1.02,0-1.41s-1.02-.39-1.41,0l-3.08,3.08-1-1c-.39-.39-1.02-.39-1.41,0-.39.39-.39,1.02,0,1.41l1.7,1.7Z"/>
      <path d="M31.27,6.66h23.61c.55,0,1-.45,1-1s-.45-1-1-1h-23.61c-.55,0-1,.45-1,1s.45,1,1,1Z"/>
      <path d="M31.27,13.2h15.37c.55,0,1-.45,1-1s-.45-1-1-1h-15.37c-.55,0-1,.45-1,1s.45,1,1,1Z"/>
      <path d="M17.06,40.93c4.93,0,8.93-4,8.93-8.92s-4.01-8.93-8.93-8.93-8.93,4.01-8.93,8.93c0,4.92,4.01,8.92,8.93,8.92ZM17.06,25.07c3.82,0,6.93,3.11,6.93,6.93s-3.11,6.92-6.93,6.92-6.93-3.11-6.93-6.92c0-3.82,3.11-6.93,6.93-6.93h0Z"/>
      <path d="M15.31,34.6c.2.2.45.29.71.29s.51-.1.71-.29l3.79-3.79c.39-.39.39-1.02,0-1.41s-1.02-.39-1.41,0l-3.08,3.08-1-1c-.39-.39-1.02-.39-1.41,0-.39.39-.39,1.02,0,1.41l1.7,1.7Z"/>
      <path d="M31.27,29.73h23.61c.55,0,1-.45,1-1s-.45-1-1-1h-23.61c-.55,0-1,.45-1,1s.45,1,1,1Z"/>
      <path d="M31.27,36.27h15.37c.55,0,1-.45,1-1s-.45-1-1-1h-15.37c-.55,0-1,.45-1,1s.45,1,1,1Z"/>
      <path d="M17.06,64c4.93,0,8.93-4,8.93-8.92s-4.01-8.93-8.93-8.93-8.93,4.01-8.93,8.93c0,4.92,4.01,8.92,8.93,8.92h0ZM17.06,48.14c3.82,0,6.93,3.11,6.93,6.93s-3.11,6.92-6.93,6.92-6.93-3.11-6.93-6.92c0-3.82,3.11-6.93,6.93-6.93h0Z"/>
      <path d="M15.31,57.67c.2.2.45.29.71.29s.51-.1.71-.29l3.79-3.79c.39-.39.39-1.02,0-1.41s-1.02-.39-1.41,0l-3.08,3.08-1-1c-.39-.39-1.02-.39-1.41,0s-.39,1.02,0,1.41l1.7,1.7Z"/>
      <path d="M31.27,52.8h23.61c.55,0,1-.45,1-1s-.45-1-1-1h-23.61c-.55,0-1,.45-1,1s.45,1,1,1Z"/>
      <path d="M31.27,59.34h15.37c.55,0,1-.45,1-1s-.45-1-1-1h-15.37c-.55,0-1,.45-1,1s.45,1,1,1Z"/>
    </g>
  </g>
</svg>