<?xml version="1.0" encoding="UTF-8"?>
<svg id="Layer_1" data-name="Layer 1" xmlns="http://www.w3.org/2000/svg" viewBox="0 0 24 24">
  <defs>
    <style>
      .cls-1 {
        fill: #2a333a;
      }

      .cls-1, .cls-2 {
        fill-rule: evenodd;
      }

      .cls-2 {
        fill: #bbbdbf;
        isolation: isolate;
      }

      .cls-3 {
        fill: #fefefe;
      }
    </style>
  </defs>
  <circle class="cls-3" cx="12" cy="12" r="12"/>
  <path class="cls-2" d="M23.96,12.93c-.45,5.89-5.15,10.58-11.03,11.03l-7.37-7.37c-.19-.15-.31-.39-.31-.65v-7.78l2.1,1.21-1.88-1.88c.15-.17.38-.28.63-.28h11.8c.25,0,.47.11.63.28l5.44,5.44Z"/>
  <path class="cls-1" d="M18.74,8.16l-6.57,3.8c-.1.06-.24.07-.35,0l-6.57-3.8v7.78c0,.46.38.84.84.84h11.8c.46,0,.84-.38.84-.84v-7.78ZM6.1,7.21h11.8c.25,0,.47.11.63.28l-6.53,3.78-6.53-3.78c.15-.17.38-.28.63-.28h0Z"/>
</svg>