<?xml version="1.0" encoding="UTF-8"?>
<svg id="Layer_1" data-name="Layer 1" xmlns="http://www.w3.org/2000/svg" viewBox="0 0 24 24">
  <defs>
    <style>
      .cls-1 {
        fill: #2a333a;
      }

      .cls-2 {
        fill: #717171;
      }

      .cls-3 {
        fill: #bbbdbf;
      }
    </style>
  </defs>
  <path class="cls-2" d="M12.03,12c0-2.21,1.87-4,4.18-4s4.19,1.79,4.19,4-1.87,4-4.19,4-4.18-1.79-4.18-4"/>
  <path class="cls-2" d="M3.66,20c0-2.21,1.87-4,4.18-4l2.23-1.12,1.95,1.12v4c0,2.21-1.87,4-4.18,4s-4.18-1.79-4.18-4"/>
  <path class="cls-3" d="M12.03,0l-2.28,3.78,2.28,4.22h4.13c2.31,0,4.18-1.79,4.18-4S18.47,0,16.16,0h-4.13Z"/>
  <path class="cls-1" d="M3.6,4c0,2.21,1.87,4,4.18,4l2.22.82,2.02-.82V0h-4.24C5.47,0,3.6,1.79,3.6,4"/>
  <path class="cls-1" d="M3.66,12c0,2.21,1.87,4,4.18,4h4.18v-8h-4.18c-2.31,0-4.18,1.79-4.18,4"/>
</svg>