<?xml version="1.0" encoding="UTF-8"?>
<svg id="Layer_1" data-name="Layer 1" xmlns="http://www.w3.org/2000/svg" viewBox="0 0 24 24">
  <defs>
    <style>
      .cls-1 {
        fill: #2a333a;
      }

      .cls-2 {
        fill: #bbbdbf;
      }
    </style>
  </defs>
  <path class="cls-2" d="M14.21,17.59c.43.38.81,1.1.81,2.22,0,1.61-.02,2.9-.02,3.3,0,.16.06.33.19.45.25-.07.5-.15.75-.23-1.23.44-2.56.67-3.94.67-1.1,0-2.17-.15-3.18-.43.15-.12.21-.29.21-.46,0-.28-.01-1.23-.01-2.23-3.02.55-3.8-.74-4.04-1.41-.13-.35-.72-1.41-1.23-1.7-.42-.22-1.02-.78-.01-.79.94-.02,1.61.87,1.84,1.23,1.08,1.81,2.81,1.3,3.5.99.1-.78.41-1.31.76-1.61-2.67-.3-5.46-1.33-5.46-5.92,0-1.31.47-2.39,1.23-3.23-.12-.3-.54-1.53.12-3.18,0,0,1-.31,3.3,1.23.96-.27,1.98-.4,3-.4s2.04.13,3,.4c2.3-1.56,3.3-1.23,3.3-1.23.66,1.65.24,2.88.12,3.18.77.84,1.23,1.91,1.23,3.23,0,4.6-2.8,5.62-5.47,5.92Z"/>
  <path class="cls-1" d="M24,12v.15c0,.16-.01.32-.02.47-.01.2-.02.4-.04.61-.02.2-.05.4-.08.6-.02.16-.05.32-.08.48-.15.72-.35,1.42-.61,2.08-.32.82-.73,1.6-1.22,2.32,0,0-.02.01-.02.02-.2.3-.42.59-.65.86-.05.06-.1.11-.14.17-.2.23-.4.46-.62.68-.01.01-.03.03-.04.04-.01.01-.03.03-.05.04-.92.91-1.98,1.67-3.15,2.24-.05.03-.1.05-.16.08-.39.18-.78.35-1.18.49-.25.08-.5.16-.75.23-.13-.12-.19-.29-.19-.45,0-.4.02-1.69.02-3.3,0-1.12-.38-1.84-.81-2.22,2.67-.3,5.47-1.32,5.47-5.92,0-1.32-.46-2.39-1.23-3.23.12-.3.54-1.53-.12-3.18,0,0-1-.33-3.3,1.23-.96-.27-1.98-.4-3-.4s-2.04.13-3,.4c-2.3-1.54-3.3-1.23-3.3-1.23-.66,1.65-.24,2.88-.12,3.18-.76.84-1.23,1.92-1.23,3.23,0,4.59,2.79,5.62,5.46,5.92-.35.3-.66.83-.76,1.61-.69.31-2.42.82-3.5-.99-.23-.36-.9-1.25-1.84-1.23-1.01,0-.41.57.01.79.51.29,1.1,1.35,1.23,1.7.24.67,1.02,1.96,4.04,1.41,0,1,.01,1.95.01,2.23,0,.17-.06.34-.21.46h-.01c-3.15-.87-5.79-2.98-7.32-5.79-.07-.14-.15-.28-.22-.42-.07-.15-.14-.29-.21-.44-.06-.14-.13-.29-.19-.44-.06-.15-.11-.3-.17-.45-.11-.3-.2-.61-.29-.93-.04-.16-.09-.33-.12-.49-.03-.13-.06-.26-.08-.4-.04-.18-.07-.37-.09-.56-.03-.16-.05-.32-.06-.49-.04-.33-.06-.67-.06-1.01v-.15c0-.62.05-1.23.14-1.83.06-.4.14-.78.24-1.16s.22-.76.35-1.13c.6-1.66,1.57-3.15,2.79-4.36.29-.29.59-.56.9-.82.28-.22.57-.44.87-.65h.01c.95-.65,2-1.16,3.13-1.51.19-.06.39-.11.58-.16.38-.1.77-.18,1.16-.24.6-.09,1.21-.14,1.83-.14s1.23.05,1.83.14c.39.06.78.14,1.16.24.19.05.39.1.58.16,1.13.35,2.18.86,3.13,1.51h.01c.3.21.59.42.87.65.31.26.61.53.9.82,1.22,1.21,2.19,2.7,2.79,4.36.13.37.25.75.35,1.13s.18.77.24,1.16c.09.6.14,1.21.14,1.83Z"/>
</svg>