<?xml version="1.0" encoding="UTF-8"?>
<svg id="Layer_1" data-name="Layer 1" xmlns="http://www.w3.org/2000/svg" viewBox="0 0 24 24">
  <defs>
    <style>
      .cls-1 {
        fill: #2a333a;
      }

      .cls-2 {
        fill: #333132;
      }

      .cls-3 {
        fill: #bbbdbf;
      }
    </style>
  </defs>
  <path class="cls-1" d="M12,0C18.63,0,24,5.37,24,12s-5.37,12-12,12S0,18.63,0,12,5.37,0,12,0"/>
  <path class="cls-2" d="M23.96,11.06l-4.86-4.86h-2.21v2.05l1.13,1.13h-1.13v1.85l-5.04-5.04h-2.47l-4.5,11.55,6.21,6.21c.29.02.59.03.89.03,6.63,0,12-5.37,12-12,0-.32-.01-.63-.04-.94"/>
  <path class="cls-3" d="M12.19,13.18l-1.59-4.29-1.56,4.29h3.15ZM16.48,17.75h-2.54l-1.01-2.62h-4.62l-.95,2.62h-2.47l4.5-11.55h2.47l4.62,11.55Z"/>
  <path class="cls-3" d="M16.89,17.75v-8.37h2.21v8.37h-2.21ZM16.89,6.2h2.21v2.05h-2.21v-2.05Z"/>
</svg>