<?xml version="1.0" encoding="UTF-8"?>
<svg id="Layer_1" data-name="Layer 1" xmlns="http://www.w3.org/2000/svg" viewBox="0 0 24 24">
  <defs>
    <style>
      .cls-1 {
        fill: #2a333a;
      }

      .cls-2 {
        fill: #333132;
      }

      .cls-3 {
        fill: #bbbdbf;
      }
    </style>
  </defs>
  <path class="cls-1" d="M12,0C18.63,0,24,5.37,24,12s-5.37,12-12,12S0,18.63,0,12,5.37,0,12,0"/>
  <path class="cls-2" d="M10.94,23.74c.35.03.7.04,1.05.04,6.63,0,12.01-5.31,12.01-11.86,0-.39-.02-.77-.06-1.15l-5.46-5.39h-2.52v4.68c-.78-.87-1.7-1.31-2.76-1.31-.5,0-.97.08-1.4.24l-3.65-3.6h-2.65v12.99l5.44,5.37Z"/>
  <rect class="cls-3" x="5.5" y="4.84" width="2.49" height="12.33"/>
  <path class="cls-3" d="M11.37,12.98c0,.95.13,1.64.4,2.07.38.62.91.93,1.6.93.55,0,1.01-.23,1.39-.69.38-.46.57-1.15.57-2.07,0-1.03-.19-1.77-.56-2.22-.37-.45-.84-.68-1.42-.68s-1.03.22-1.41.67c-.38.45-.57,1.11-.57,2M17.68,17.64h-2.2v-1.31c-.74,1.03-1.8,1.51-2.79,1.51s-1.91-.41-2.64-1.24c-.73-.83-1.1-1.98-1.1-3.46s.36-2.66,1.07-3.45c.71-.79,1.61-1.18,2.7-1.18,1,0,1.86.42,2.59,1.25v-4.44h2.36v12.33Z"/>
</svg>