<?xml version="1.0" encoding="UTF-8"?>
<svg id="Layer_1" data-name="Layer 1" xmlns="http://www.w3.org/2000/svg" viewBox="0 0 24 24">
  <defs>
    <style>
      .cls-1 {
        fill: #2a333a;
      }

      .cls-2 {
        fill: #717171;
      }

      .cls-3 {
        fill: #bbbdbf;
      }
    </style>
  </defs>
  <path id="path3770" class="cls-1" d="M16.35.03c-2.61,0-5.21-.08-7.82,0-2.36.04-4.72-.09-7.09,0,.59,7.19,1.23,14.38,1.92,21.57,2.64.73,5.28,1.48,7.91,2.24.34.09.71.23,1.06.08,2.77-.78,5.54-1.56,8.31-2.35.61-7.19,1.26-14.37,1.92-21.55-2.07-.02-4.14,0-6.21,0ZM11.09,18.75c-2.03-.49-4.02-1.13-6.05-1.63-.09-.82-.11-1.64-.07-2.47,1.39.3,2.75.73,4.11,1.1.03-3.7-.04-7.42.04-11.11.66,0,1.32.02,1.99.04-.02,4.68,0,9.38-.02,14.07ZM18.96,20.38c-2.3.66-4.59,1.34-6.92,1.89-.09-3.23-.02-6.48-.04-9.71.02-3.54-.06-7.09.04-10.63,2.85,0,5.7-.02,8.55,0-.49,6.15-1.05,12.31-1.63,18.45Z"/>
  <path id="path3798" class="cls-2" d="M12.04,1.92c-.1,3.54-.02,7.09-.04,10.63.02,3.23-.05,6.48.04,9.71,2.33-.55,4.62-1.22,6.92-1.89.58-6.15,1.14-12.3,1.63-18.45-2.85-.03-5.7,0-8.55,0ZM14.87,10.89c1.41-.09,2.81-.33,4.21-.45-.2,2.2-.33,4.4-.53,6.59.02.33-.39.32-.61.42-1.7.43-3.38.91-5.1,1.29,0-.82,0-1.64.02-2.46,1.36-.33,2.72-.71,4.06-1.06.03-.71.06-1.42.08-2.13-1.38.25-2.78.51-4.17.74.02-3.05,0-6.11,0-9.16,2.24-.04,4.48,0,6.72-.02-.07.84-.15,1.67-.24,2.49h-4.44c-.02,1.25-.02,2.49,0,3.73Z"/>
  <path class="cls-3" d="M14.88,7.15c-.02,1.25-.02,2.49,0,3.73,1.41-.09,2.81-.33,4.21-.45-.2,2.2-.33,4.4-.53,6.59.02.33-.39.32-.61.42-1.7.43-3.38.91-5.1,1.29,0-.82,0-1.64.02-2.46,1.36-.33,2.72-.71,4.06-1.06.03-.71.06-1.42.08-2.13-1.38.25-2.78.51-4.17.74.02-3.05,0-6.11,0-9.16,2.24-.04,4.48,0,6.72-.02-.07.84-.15,1.67-.24,2.49h-4.44Z"/>
  <path id="path3806" class="cls-3" d="M9.08,15.75c.03-3.7-.04-7.41.04-11.11.66.01,1.33.02,1.99.04-.02,4.69,0,9.38,0,14.07-2.03-.49-4.02-1.14-6.05-1.63-.09-.82-.11-1.64-.07-2.47,1.39.3,2.74.73,4.11,1.1Z"/>
</svg>