<?xml version="1.0" encoding="UTF-8"?>
<svg id="Layer_1" data-name="Layer 1" xmlns="http://www.w3.org/2000/svg" viewBox="0 0 24 24">
  <defs>
    <style>
      .cls-1 {
        fill: #2a333a;
      }

      .cls-2 {
        fill: #bbbdbf;
      }
    </style>
  </defs>
  <circle class="cls-1" cx="12" cy="12" r="12"/>
  <path class="cls-2" d="M11.9,18.54c-.84-1.2-3.26-2.78-3.92-3.9-.18-.3-.2-.34-.1-.69.05-.18,2.42-2.56,2.68-2.67.72-.32,1.44-.14,2.21-.17l-3.01,3.15,2.72,2.76h4.48V7.1H7.04v9.92l1.33.1,1.53,1.42h-3.91s-.48-.44-.48-.48V6.24c0-.56.82-.64,1.23-.68,3.59-.31,7.74.16,11.36.11.09.04.38.35.38.38v12.21l-.29.29h-6.3Z"/>
</svg>