<?xml version="1.0" encoding="UTF-8"?>
<svg id="Layer_1" data-name="Layer 1" xmlns="http://www.w3.org/2000/svg" viewBox="0 0 24 24">
  <defs>
    <style>
      .cls-1 {
        fill: #2a333a;
      }

      .cls-2 {
        fill: #333132;
      }

      .cls-3 {
        fill: #bbbdbf;
      }

      .cls-4 {
        fill: #fefefe;
      }
    </style>
  </defs>
  <path class="cls-4" d="M5.65,3.21h-.02c-.98,0-1.78.8-1.78,1.78s.8,1.78,1.78,1.78h.02c.98,0,1.78-.8,1.78-1.78s-.8-1.78-1.78-1.78Z"/>
  <path class="cls-4" d="M4.06,7.51h3.15v10.03h-3.15V7.51Z"/>
  <g>
    <path class="cls-1" d="M24,12c0,6.63-5.37,12-12,12S0,18.63,0,12,5.37,0,12,0s12,5.37,12,12Z"/>
    <path class="cls-2" d="M23.72,14.58l-5.32-5.29c-.17-.18-.36-.34-.59-.48-.39-.23-.9-.35-1.53-.35-.85,0-1.6.16-2.25.47-.22.11-.43.23-.62.37l-.78-.66h-.96l-3.6-3.6c-.31-.35-.77-.57-1.27-.57h-.02c-.95,0-1.72.77-1.72,1.72,0,.46.18.87.47,1.18l1.26,1.26h-1.53v9.71l5.58,5.58c.38.04.76.06,1.15.06,5.74,0,10.54-4.03,11.72-9.42Z"/>
    <path class="cls-3" d="M6.8,4.49h-.02c-.95,0-1.72.77-1.72,1.72s.77,1.72,1.72,1.72h.02c.95,0,1.72-.77,1.72-1.72s-.77-1.72-1.72-1.72Z"/>
    <path class="cls-3" d="M5.27,8.65h3.05v9.71h-3.05v-9.71Z"/>
    <path class="cls-3" d="M19.13,10.92c-.07-.43-.21-.84-.42-1.2-.21-.37-.51-.67-.9-.9-.39-.23-.9-.35-1.53-.35-.85,0-1.6.16-2.25.47-.58.28-1.05.67-1.4,1.16v-1.45h-2.76v9.71h3.05v-5.55c.08-.23.2-.45.34-.65.15-.2.32-.38.51-.52.19-.15.39-.26.59-.35.2-.08.4-.12.59-.12.37,0,.66.13.89.4.23.27.34.72.34,1.33v5.45h3.05v-6.2c0-.4-.03-.82-.1-1.25Z"/>
  </g>
</svg>