<?xml version="1.0" encoding="UTF-8"?>
<svg id="Layer_1" data-name="Layer 1" xmlns="http://www.w3.org/2000/svg" viewBox="0 0 24 24">
  <defs>
    <style>
      .cls-1 {
        fill: #2a333a;
      }

      .cls-2 {
        fill: #30343a;
      }

      .cls-3 {
        fill: #bbbdbf;
      }
    </style>
  </defs>
  <path class="cls-2" d="M11.42.03c1.44-.16,2.64.27,3.72,1.19,2.58,2.2,4.88,5.17,7.44,7.45,1.6,2.03,1.61,4.69-.04,6.69-2.6,2.22-4.97,5.48-7.59,7.58-1.81,1.45-4.23,1.38-5.99-.09-2.61-2.17-4.95-5.28-7.53-7.54-1.63-2.01-1.58-4.7.04-6.69,2.56-2.25,4.86-5.27,7.44-7.44.71-.6,1.57-1.04,2.51-1.14ZM10.85,3.02c-.13.03-.25.12-.35.22-2.04,2.31-4.72,4.37-6.69,6.7-1.21,1.43-1.32,2.54-.09,4.03l6.93,6.93c.32.23.82.06.89-.33.1-.51.06-2.42,0-3-.01-.14,0-.27-.08-.39-1.63-1.8-3.5-3.4-5.08-5.22l.09-.19,5.01-5.01c.08-.17.1-3.03.05-3.32-.06-.33-.37-.47-.68-.41ZM12.58,20.87c.14.14.61.18.78.03,2.41-2.51,5.02-4.86,7.33-7.47.84-1.37.47-2.36-.5-3.5-1.97-2.32-4.66-4.39-6.69-6.7-.31-.36-.94-.31-1.03.19s-.06,2.42,0,3c.01.14,0,.27.08.39,1.63,1.8,3.5,3.4,5.08,5.22l-.09.19-5.01,5.01c-.02.54-.18,3.38.07,3.63ZM10.94,8.55c-.5.11-.5.79,0,.89.35.08,1.93.08,2.18-.12.31-.26.13-.72-.23-.79-.28-.05-1.66-.04-1.94.02ZM9.31,10.14c-.35.35-.09.77.4.82.95.11,3.54.11,4.5,0,.74-.09.74-.86,0-.94-1.04-.12-3.34-.09-4.41,0-.15.01-.39.02-.49.12ZM16.1,11.64c-.1-.1-.34-.11-.49-.12-2.34-.2-4.94.16-7.31,0-.72.05-.89.85-.09.94,2.34.25,5.11-.19,7.49,0,.48.06.7-.52.4-.82ZM9.52,13.96h4.96c.3,0,.3-.84,0-.84h-5.06c-.25,0-.37.77.09.84ZM12.98,14.62c-.34-.09-1.68,0-2.15,0-.3,0-.3.84,0,.84h2.15c.38,0,.29-.76,0-.84Z"/>
  <path class="cls-3" d="M12.58,20.87c-.25-.25-.09-3.08-.07-3.63l5.01-5.01.09-.19c-1.58-1.82-3.45-3.42-5.08-5.22-.07-.12-.06-.26-.08-.39-.05-.58-.09-2.49,0-3s.72-.55,1.03-.19c2.04,2.31,4.72,4.37,6.69,6.7.97,1.14,1.34,2.13.5,3.5-2.31,2.6-4.92,4.95-7.33,7.47-.17.15-.64.11-.78-.03ZM13.5,4.88v1.45l4.78,4.78c.27.26.52-.46.53-.67.01-.24-.16-.5-.3-.69-.66-.89-3.84-4.04-4.73-4.73-.09-.07-.12-.18-.28-.14ZM13.5,19.11l.28-.14c1.68-1.98,4.16-3.77,5.76-5.76.55-.68.88-1.47.14-2.15-.07.36-.3.66-.52.94l-5.67,5.66v1.45Z"/>
  <path class="cls-3" d="M10.85,3.02c.31-.07.62.08.68.41.06.3.03,3.15-.05,3.32l-5.01,5.01-.09.19c1.58,1.82,3.45,3.42,5.08,5.22.07.12.06.26.08.39.05.58.09,2.49,0,3-.07.39-.57.56-.89.33l-6.93-6.93c-1.23-1.49-1.12-2.6.09-4.03,1.97-2.32,4.66-4.39,6.69-6.7.1-.09.22-.19.35-.22ZM10.5,4.88l-.28.14c-1.67,1.98-4.17,3.77-5.76,5.76-.43.53-.8,1.17-.44,1.85.28.54.59-.36.86-.68,1.66-1.95,3.9-3.68,5.62-5.62v-1.45ZM10.5,19.11v-1.45l-4.78-4.78c-.27-.26-.52.46-.53.67-.01.24.16.5.3.69.66.89,3.84,4.04,4.73,4.73.09.07.12.18.28.14Z"/>
  <path class="cls-3" d="M16.1,11.64c.3.3.08.88-.4.82-2.39-.19-5.15.25-7.49,0-.8-.09-.63-.89.09-.94,2.37.15,4.97-.2,7.31,0,.15.01.39.02.49.12Z"/>
  <path class="cls-3" d="M9.31,10.14c.1-.1.34-.11.49-.12,1.07-.09,3.37-.12,4.41,0,.74.08.74.85,0,.94-.96.11-3.54.11-4.5,0-.48-.06-.74-.48-.4-.82Z"/>
  <path class="cls-3" d="M9.52,13.96c-.46-.08-.35-.84-.09-.84h5.06c.3,0,.3.84,0,.84h-4.96Z"/>
  <path class="cls-3" d="M10.94,8.55c.28-.06,1.66-.07,1.94-.02.36.07.54.53.23.79-.24.2-1.82.2-2.18.12-.5-.11-.5-.79,0-.89Z"/>
  <path class="cls-3" d="M12.98,14.62c.29.08.38.84,0,.84h-2.15c-.3,0-.3-.84,0-.84.47,0,1.82-.09,2.15,0Z"/>
  <path class="cls-1" d="M13.5,19.11v-1.45l5.67-5.66c.21-.28.45-.58.52-.94.74.68.41,1.47-.14,2.15-1.6,1.99-4.07,3.78-5.76,5.76l-.28.14Z"/>
  <path class="cls-1" d="M13.5,4.88c.16-.04.19.07.28.14.89.68,4.07,3.84,4.73,4.73.14.19.31.45.3.69-.01.21-.27.93-.53.67l-4.78-4.78v-1.45Z"/>
  <path class="cls-1" d="M10.5,4.88v1.45c-1.72,1.93-3.96,3.67-5.62,5.62-.27.32-.58,1.21-.86.68-.36-.68.01-1.31.44-1.85,1.59-1.98,4.09-3.78,5.76-5.76l.28-.14Z"/>
  <path class="cls-1" d="M10.5,19.11c-.16.04-.19-.07-.28-.14-.89-.68-4.07-3.84-4.73-4.73-.14-.19-.31-.45-.3-.69.01-.21.27-.93.53-.67l4.78,4.78v1.45Z"/>
</svg>