<?xml version="1.0" encoding="UTF-8"?>
<svg id="mick-logo" xmlns="http://www.w3.org/2000/svg" version="1.1" viewBox="0 0 500 500">
  <!-- Generator: Adobe Illustrator 29.5.1, SVG Export Plug-In . SVG Version: 2.1.0 Build 141)  -->
  <defs>
    <style>
      .st0 {
        fill: #2a333a;
      }

      .st1 {
        fill: #fefefe;
      }
    </style>
  </defs>
  <rect class="st0" x="0" y="0" width="500" height="500" rx="250" ry="250"/>
  <g>
    <path class="st1" d="M360.4,185.6h24.2c2.1,0,3.8,1.7,3.8,3.8v63.8c0,.3.3.4.5.2,3.1-3.6,19.4-22.3,23.4-30.1.2-.4.7-.7,1.2-.7h30c.8,0,1.2.9.8,1.5l-27.9,37.3c-.4.5-.4,1.1,0,1.6l33.5,51.2c.4.6,0,1.4-.7,1.4-4.6.5-19.2,2-30.5.5-.4,0-.8-.3-1-.7-2.5-4.3-18-30.4-20.3-29.6-2.6.9-8.8,3.7-8.8,8.2,0,3.4.8,13.6-.5,19.1-.5,2-2.3,3.4-4.4,3.4h-20.4c-1.9,0-3.5-1.3-3.9-3.1-.2-.9-.3-2-.3-3.4v-122.8c0-.8.7-1.5,1.5-1.5h0Z"/>
    <path class="st1" d="M348,236.9c.9-1.1.7-2.7-.3-3.6-4.6-4-18-14.2-35.7-14.2s-44.1,10.2-50.6,40.5c-6.5,30.3,17.9,59.9,49,58.9,26.1-.8,35.8-12.7,38.4-16.9.5-.8.4-1.7-.2-2.4l-15.8-17.8c-.4-.4-1-.4-1.4,0-2.2,2.5-9.5,9.5-21.9,8.8-15-.9-20.1-15.1-20.8-21.4-.6-5.9,3.8-21.6,22.8-22.4,0,0,8.8-.9,17.4,7,.9.8,2.3.9,3.2,0,3.7-3.5,12.5-11.9,16.1-16.5h0Z"/>
    <path class="st1" d="M251.3,312.1c0,.5-.1.9-.2,1.3-.5,1.9-2.3,3.3-4.4,3.2-5.7,0-17.5-.2-20.5,0-4,.3-4.2-5.4-4.2-5.4v-50.4c0-14.1,0-26,.1-27,0-.4.1-.8.2-1.2.5-1.8,2.3-3,4.4-2.9,5.7,0,17.5.1,20.5,0,1.9-.1,3,1,3.5,2.2.3.7.5,1.4.6,1.9h0c0,.5,0,.8,0,.8v39c0,19,0,37.2-.1,38.4h0Z"/>
    <path class="st1" d="M231.3,183.5s-19.9,11.4-8.1,27.5c11.8,16.2,24.8,2,27.2,0,2.3-2,8.8-11.8.5-23.1-8.3-11.3-19.6-4.4-19.6-4.4Z"/>
    <path class="st1" d="M175.1,254.8l.7,55.5c0,.7,0,1.5,0,2.2,0,1.2.3,3.6,3.9,4.2,4.8.8,23.2,0,23.2,0,0,0,3.6,0,3.6-4.8,0-4.8.9-59.5.9-59.5,0,0,.4-21.1-14.3-31.1-14.7-10-34.2-9.3-43.7-1.5-8.6,7-11,9.6-11.4,10,0,0-.1,0-.2,0h0c-.8,0-1.6-.5-1.9-1.2-1-2.1-3.8-6.5-9.7-10-8.1-4.7-20-6.7-28.2-3.2-7.6,3.3-13,7.2-15.8,10.6-.3.3-.8.2-.9-.2l-1.1-4.6s-.4-3.5-4.6-3.9c-3.1-.3-12.8-.1-17.8,0-2.8,0-5.4,1.7-6.5,4.3-.6,1.4-1,3-1,5.1v84.3c0,.9.2,1.8.6,2.7.6,1.2,1.8,2.4,4,2.4h21.8c.7,0,1.4-.2,2-.7.7-.6,1.3-1.6,1.3-3.5,0-3.5.5-50.2.6-58.3,0-1.2.3-2.4.8-3.5,1.2-2.4,3.9-6,10.1-7.4,9.8-2.3,18.5,2.5,19.7,9.7,1.1,6.6.2,50.5,0,58.3,0,1.3.4,2.5,1.2,3.5s2.2,1.9,4.4,2.1l2.2.2c1.7.1,3.4.2,5.1.2h13.9s3.8,0,5.4-4.1c1.3-3.5.4-45.2,0-56.7,0-2.3.6-4.6,2-6.5,2.2-2.9,6.1-6.7,12.4-7,9.7-.5,15.2,2.1,16.8,9,.3,1.1.4,2.3.4,3.4Z"/>
  </g>
</svg>