<?xml version="1.0" encoding="UTF-8"?>
<svg id="Layer_1" data-name="Layer 1" xmlns="http://www.w3.org/2000/svg" viewBox="0 0 24 24">
  <defs>
    <style>
      .cls-1 {
        fill: #2a333a;
      }

      .cls-2 {
        fill: #333132;
      }

      .cls-3 {
        fill: #bbbdbf;
      }
    </style>
  </defs>
  <path class="cls-1" d="M12,0C18.63,0,24,5.37,24,12s-5.37,12-12,12S0,18.63,0,12,5.37,0,12,0"/>
  <path class="cls-2" d="M16.03,9.4c-.96,0-1.69.17-2.2.52l-2.31-2.28c-.36-.38-.79-.64-1.28-.77-.71-.19-2.41-.16-5.84-.16v10.35l6.91,6.91c.23.01.46.02.69.02,5.55,0,10.22-3.77,11.59-8.89l-4.89-4.89c-.62-.63-1.54-.81-2.67-.81"/>
  <path class="cls-3" d="M6.49,8.47v2.94c2.12,0,2.94.07,3.45-.67.34-.49.33-1.27-.1-1.74-.53-.59-1.11-.53-3.35-.53M4.4,17.07V6.72c3.43,0,5.13-.04,5.84.16.59.15,1.09.49,1.49,1.01.77,1.01.74,2.71.25,3.62-.44.82-1.18,1.34-1.96,1.51-.92.18-2.28.15-3.53.15v3.9h-2.09Z"/>
  <path class="cls-3" d="M12.6,14.93l1.99-.3c.19.84.75,1.18,1.6,1.18.65,0,1.42-.16,1.42-.81,0-.44-.37-.53-.8-.64-1.6-.35-2.61-.67-3.04-.97-.59-.4-.89-.97-.89-1.69,0-.65.26-1.19.77-1.64.51-.44,1.31-.66,2.39-.66,1.64,0,2.86.39,3.32,1.98l-1.87.35c-.08-.29-.23-.52-.46-.67-.51-.35-1.68-.27-2.08-.02-.28.2-.31.55-.03.76.57.42,3.03.58,4.07,1.44.41.35.62.85.62,1.48,0,.69-.29,1.28-.86,1.77-.57.49-1.42.74-2.55.74-1.02,0-1.83-.21-2.43-.62-.59-.41-.98-.98-1.17-1.69"/>
</svg>