<?xml version="1.0" encoding="UTF-8"?>
<svg id="Layer_1" data-name="Layer 1" xmlns="http://www.w3.org/2000/svg" viewBox="0 0 24 24">
  <defs>
    <style>
      .cls-1 {
        fill: #2a333a;
      }

      .cls-2 {
        fill: #333132;
      }

      .cls-3 {
        fill: #bbbdbf;
      }
    </style>
  </defs>
  <path class="cls-1" d="M12,0C5.37,0,0,5.37,0,12s5.37,12,12,12,12-5.37,12-12S18.63,0,12,0ZM16.79,13.36c-.53,1.22-1.9,2.2-3.24,2.27-.9.05-1.97-.05-2.39-.93-.06.42-.35,1.61-.47,2.04-.14.47-.25,1.12-.63,1.46-.21.18-1.06.65-1.29.05-.3-.79.34-2.61.58-3.5.13-.48.21-.96.28-1.45.06-.41.24-.79.26-1.2.02-.43-.12-.84-.14-1.27,0-.44,0-.93.23-1.32.38-.64,1.36-1.12,2.03-.64.6.44.49,1.38.26,2-.16.44-.28.82-.37,1.28-.07.33-.14.83-.28,1.11.47.47.67.96,1.42.96.55,0,1.11-.31,1.44-.75.33-.43.62-.93.83-1.42.33-.76.28-1.73.21-2.52-.08-.79-.48-1.51-1.12-1.98-1.51-1.13-4.04-.88-5.26.59-.73.89-1.09,2.12-.96,3.27.04.39.37.65.56.98.17.3.15,1.02-.15,1.28-.31.26-.77-.25-.99-.46-.65-.6-.93-1.35-1.06-2.2-.08-.49-.05-1.06.12-1.5.19-.49.32-.99.64-1.39.27-.34.56-.72.85-1.04.28-.3.61-.49.99-.68.41-.21.8-.47,1.22-.62.48-.17.96-.24,1.46-.29.83-.07,1.88-.04,2.65.34.62.31,1.3.7,1.81,1.21.68.67,1.13,1.8,1.22,2.72.12,1.2-.22,2.53-.7,3.62Z"/>
  <path id="shadow" class="cls-2" d="M9.04,18.52s-.04-.25,0-.41l.6-1.98-.04-1.36-1.36-1.16-.49-3.72c.05-.16,1.41-2.9,1.52-2.77l2.28-.92c.39.45,1.21.29,1.73,0l3.41,2.84c.53-.29-.36-1.5.06-1.07l6.79,6.56c.05.05.08.13.06.2-.63,3.58-2.84,6.31-6.09,7.93-.08.04-2.84,1.12-2.9,1.06l-5.58-5.19Z"/>
  <path class="cls-3" d="M16.79,13.36c-.53,1.22-1.9,2.2-3.24,2.27-.9.05-1.97-.05-2.39-.93-.06.42-.35,1.61-.47,2.04-.14.47-.25,1.12-.63,1.46-.21.18-1.06.65-1.29.05-.3-.79.34-2.61.58-3.5.13-.48.21-.96.28-1.45.06-.41.24-.79.26-1.2.02-.43-.12-.84-.14-1.27,0-.44,0-.93.23-1.32.38-.64,1.36-1.12,2.03-.64.6.44.49,1.38.26,2-.16.44-.28.82-.37,1.28-.07.33-.14.83-.28,1.11.47.47.67.96,1.42.96.55,0,1.11-.31,1.44-.75.33-.43.62-.93.83-1.42.33-.76.28-1.73.21-2.52-.08-.79-.48-1.51-1.12-1.98-1.51-1.13-4.04-.88-5.26.59-.73.89-1.09,2.12-.96,3.27.04.39.37.65.56.98.17.3.15,1.02-.15,1.28-.31.26-.77-.25-.99-.46-.65-.6-.93-1.35-1.06-2.2-.08-.49-.05-1.06.12-1.5.19-.49.32-.99.64-1.39.27-.34.56-.72.85-1.04.28-.3.61-.49.99-.68.41-.21.8-.47,1.22-.62.48-.17.96-.24,1.46-.29.83-.07,1.88-.04,2.65.34.62.31,1.3.7,1.81,1.21.68.67,1.13,1.8,1.22,2.72.12,1.2-.22,2.53-.7,3.62Z"/>
</svg>