<?xml version="1.0" encoding="UTF-8"?>
<svg id="Layer_1" data-name="Layer 1" xmlns="http://www.w3.org/2000/svg" viewBox="0 0 24 24">
  <defs>
    <style>
      .cls-1 {
        fill: #2a333a;
      }

      .cls-2 {
        fill: #333132;
      }

      .cls-3 {
        fill: #bbbdbf;
      }
    </style>
  </defs>
  <path class="cls-1" d="M12,0c6.63,0,12,5.37,12,12s-5.37,12-12,12S0,18.63,0,12,5.37,0,12,0"/>
  <path class="cls-2" d="M17.25,9.47c-.14.09-.29.23-.46.42l-.5-.5h-1.81l-2.19-2.19c-.4-.42-.87-.7-1.42-.84-.43-.12-1.36-.17-2.79-.17h-3.77v11.62l6.08,6.08c.52.07,1.06.11,1.6.11,6.01,0,10.99-4.42,11.86-10.19l-4.18-4.18c-.47-.28-.96-.42-1.47-.42-.36,0-.68.09-.96.27"/>
  <path class="cls-3" d="M6.67,8.15v3.3h1.28c.92,0,1.54-.06,1.85-.18.31-.12.56-.31.73-.57.18-.26.27-.56.27-.9,0-.42-.13-.77-.37-1.05-.25-.27-.56-.45-.94-.51-.28-.05-.84-.08-1.69-.08h-1.13ZM4.32,17.81V6.19h3.77c1.43,0,2.36.06,2.79.17.67.17,1.22.55,1.67,1.14.45.58.67,1.34.67,2.26,0,.71-.13,1.31-.39,1.8s-.59.87-.99,1.15c-.4.28-.8.46-1.22.55-.56.11-1.37.17-2.43.17h-1.53v4.38h-2.35Z"/>
  <path class="cls-3" d="M16.45,17.81h-2.23v-8.42h2.07v1.2c.35-.57.67-.94.96-1.12.28-.18.6-.27.96-.27.51,0,1,.14,1.47.42l-.69,1.94c-.38-.24-.73-.37-1.05-.37s-.58.09-.79.26c-.22.17-.39.48-.51.93-.13.45-.19,1.39-.19,2.82v2.6Z"/>
</svg>