<?xml version="1.0" encoding="UTF-8"?>
<svg id="Layer_1" data-name="Layer 1" xmlns="http://www.w3.org/2000/svg" viewBox="0 0 24 24">
  <defs>
    <style>
      .cls-1 {
        fill: #2a333a;
      }

      .cls-2 {
        fill: #bbbdbf;
      }
    </style>
  </defs>
  <g>
    <path class="cls-2" d="M16.17,15.06c-.6,5.88-9.63,4.51-8.4-.85.25-1.11,1.06-2.08,2.17-2.4-2.56-1.27-2.27-5,.48-5.84,1.05-.32,1.97-.3,3.03-.09l-.35,1.1c-1.06-.23-2.39-.18-3.12.74-.81,1.02-.51,2.68.69,3.27.24.12,1,.34,1.24.34h2.94v-1.71c.29-.22,1.03-.21,1.32,0v1.71h1.67v1.14h-1.67c-.06.83.08,1.77,0,2.59ZM14.85,12.47h-3.38c-.83,0-2,.77-2.31,1.56-1.38,3.53,4.16,5.01,5.38,2.13.07-.17.31-.87.31-1.01v-2.68Z"/>
    <path class="cls-1" d="M14.85,12.47v2.68c0,.13-.24.84-.31,1.01-1.22,2.88-6.76,1.4-5.38-2.13.31-.79,1.47-1.56,2.31-1.56h3.38Z"/>
  </g>
  <path class="cls-1" d="M12.57,0l2.02.31c9.76,2.16,12.83,14.82,4.87,21.12C12.39,27.02,1.76,23.01.21,14.16c-.08-.46-.06-.98-.2-1.43.03-.49-.04-1,0-1.49C.47,5.06,5.43.39,11.52,0h1.05ZM16.17,15.06c.08-.82-.06-1.76,0-2.59h1.67v-1.14h-1.67v-1.71c-.28-.21-1.02-.22-1.32,0v1.71h-2.94c-.24,0-1-.22-1.24-.34-1.2-.59-1.5-2.25-.69-3.27.73-.92,2.07-.97,3.12-.74l.35-1.1c-1.06-.21-1.98-.23-3.03.09-2.75.84-3.04,4.57-.48,5.84-1.1.32-1.91,1.29-2.17,2.4-1.23,5.36,7.81,6.73,8.4.85Z"/>
</svg>