<?xml version="1.0" encoding="UTF-8"?>
<svg id="Layer_1" data-name="Layer 1" xmlns="http://www.w3.org/2000/svg" viewBox="0 0 64 64">
  <path d="M58.48,4.41h-4.41v-1.1C54.07,1.48,52.59,0,50.76,0s-3.31,1.48-3.31,3.31v1.1h-2.21v-1.1C45.24,1.48,43.76,0,41.93,0s-3.31,1.48-3.31,3.31v1.1h-13.24v-1.1C25.38,1.48,23.9,0,22.07,0s-3.31,1.48-3.31,3.31v1.1h-2.21v-1.1C16.55,1.48,15.07,0,13.24,0s-3.31,1.48-3.31,3.31v1.1h-4.41C2.47,4.41,0,6.88,0,9.93v48.55C0,61.53,2.47,64,5.52,64h52.97c3.05,0,5.52-2.47,5.52-5.52v-19.86c0-.61-.49-1.1-1.1-1.1s-1.1.49-1.1,1.1v1.1h-13.24v-11.03h13.24c0,.61.49,1.1,1.1,1.1s1.1-.49,1.1-1.1V9.93c0-3.05-2.47-5.52-5.52-5.52ZM49.66,3.31c0-.61.49-1.1,1.1-1.1s1.1.49,1.1,1.1v4.41c0,.61-.49,1.1-1.1,1.1s-1.1-.49-1.1-1.1V3.31ZM40.83,3.31c0-.61.49-1.1,1.1-1.1s1.1.49,1.1,1.1v4.41c0,.61-.49,1.1-1.1,1.1s-1.1-.49-1.1-1.1V3.31ZM20.97,3.31c0-.61.49-1.1,1.1-1.1s1.1.49,1.1,1.1v4.41c0,.61-.49,1.1-1.1,1.1s-1.1-.49-1.1-1.1V3.31ZM12.14,3.31c0-.61.49-1.1,1.1-1.1s1.1.49,1.1,1.1v4.41c0,.61-.49,1.1-1.1,1.1s-1.1-.49-1.1-1.1V3.31ZM5.52,6.62h4.41v1.1c0,1.83,1.48,3.31,3.31,3.31s3.31-1.48,3.31-3.31v-1.1h2.21v1.1c0,1.83,1.48,3.31,3.31,3.31s3.31-1.48,3.31-3.31v-1.1h13.24v1.1c0,1.83,1.48,3.31,3.31,3.31s3.31-1.48,3.31-3.31v-1.1h2.21v1.1c0,1.83,1.48,3.31,3.31,3.31s3.31-1.48,3.31-3.31v-1.1h4.41c1.83,0,3.31,1.48,3.31,3.31v3.31H2.21v-3.31c0-1.83,1.48-3.31,3.31-3.31ZM46.34,26.48h-13.24v-11.03h13.24v11.03ZM33.1,52.97v-11.03h13.24v11.03h-13.24ZM30.9,52.97h-13.24v-11.03h13.24v11.03ZM2.21,52.97v-11.03h13.24v11.03H2.21ZM15.45,26.48H2.21v-11.03h13.24v11.03ZM15.45,28.69v11.03H2.21v-11.03h13.24ZM17.66,39.72v-11.03h13.24v11.03h-13.24ZM17.66,26.48v-11.03h13.24v11.03h-13.24ZM58.48,61.79H5.52c-1.83,0-3.31-1.48-3.31-3.31v-3.31h59.59v3.31c0,1.83-1.48,3.31-3.31,3.31ZM61.79,41.93v11.03h-13.24v-11.03h13.24ZM46.34,39.72h-13.24v-11.03h13.24v11.03ZM48.55,26.48v-11.03h13.24v11.03h-13.24Z"/>
  <path d="M61.79,33.1v1.1c0,.61.49,1.1,1.1,1.1s1.1-.49,1.1-1.1v-1.1c0-.61-.49-1.1-1.1-1.1s-1.1.49-1.1,1.1Z"/>
  <path d="M42.25,44.46l-3.63,3.64-1.42-1.43c-.43-.43-1.13-.43-1.57,0-.43.43-.43,1.13,0,1.57,3.63,3.62,2.21,3.75,8.19-2.21.43-.43.43-1.13,0-1.57s-1.13-.43-1.57,0Z"/>
  <path d="M57.7,17.98l-3.63,3.64-1.42-1.43c-.43-.43-1.13-.43-1.57,0-.43.43-.43,1.13,0,1.57h0c3.63,3.62,2.21,3.75,8.19-2.21.43-.43.43-1.13,0-1.57-.43-.43-1.13-.43-1.57,0Z"/>
</svg>