<?xml version="1.0" encoding="UTF-8"?>
<svg id="Layer_1" data-name="Layer 1" xmlns="http://www.w3.org/2000/svg" viewBox="0 0 64 64">
  <path d="M18.43,20.75c-2.76,0-5,2.24-5,5s2.24,5,5,5,5-2.24,5-5-2.24-5-5-5ZM18.43,28.25c-1.38,0-2.5-1.12-2.5-2.5s1.12-2.5,2.5-2.5,2.5,1.12,2.5,2.5-1.12,2.5-2.5,2.5Z"/>
  <path d="M37.18,19.5c0-2.76-2.24-5-5-5s-5,2.24-5,5,2.24,5,5,5,5-2.24,5-5ZM29.68,19.5c0-1.38,1.12-2.5,2.5-2.5s2.5,1.12,2.5,2.5-1.12,2.5-2.5,2.5-2.5-1.12-2.5-2.5Z"/>
  <path d="M9.68,40.75c0,2.76,2.24,5,5,5s5-2.24,5-5-2.24-5-5-5-5,2.24-5,5ZM14.68,38.25c1.38,0,2.5,1.12,2.5,2.5s-1.12,2.5-2.5,2.5-2.5-1.12-2.5-2.5,1.12-2.5,2.5-2.5Z"/>
  <path d="M20.93,50.75c0,2.76,2.24,5,5,5s5-2.24,5-5-2.24-5-5-5-5,2.24-5,5ZM28.43,50.75c0,1.38-1.12,2.5-2.5,2.5s-2.5-1.12-2.5-2.5,1.12-2.5,2.5-2.5,2.5,1.12,2.5,2.5Z"/>
  <path d="M54.71,11.89c0-2.97-4.33-9.94-5.19-11.31-.23-.36-.63-.58-1.06-.58s-.83.22-1.06.58c-.76,1.19-4.16,6.66-5,10.01-7.86-3.23-16.05-3.14-23.24.29-7.15,3.41-12.92,10.04-14.96,18.38-.16.67.25,1.35.92,1.51.1.02.2.04.3.04.56,0,1.07-.38,1.21-.95,1.78-7.25,6.86-13.51,13.61-16.72,6.82-3.25,14.65-3.19,22.13.16.39,1.7,1.48,3.15,2.98,4.01-.74,2.68-1.31,6.74-1.63,11.64-.13,1.99-.22,4.1-.27,6.29-4.75,2.72-7.87,7.91-7.48,14.1.15,2.34.37,5.87-3.31,9.08-2.63,2.29-6.5,2.92-10.1,1.65-8.94-3.17-15.4-11.3-16.47-20.71-.08-.69-.7-1.18-1.38-1.1-.69.08-1.18.7-1.1,1.38,1.2,10.56,8.38,19.33,18.12,22.78,4.45,1.58,9.27.77,12.58-2.12,4.61-4.02,4.32-8.64,4.16-11.13-.29-4.61,1.72-8.52,4.96-10.93h0c0,5.93.45,17.53,2.36,22.94.27.77.99,2.82,2.64,2.82s2.37-2.05,2.64-2.82c1.9-5.38,2.36-16.89,2.36-22.93,0-.86,0-1.7-.02-2.53.39,0,.78,0,1.17,0,2.37.03,4.52-1.41,5.36-3.59,2.3-5.98-1.97-11.95-7.01-15.87,1.13-1.15,1.79-2.71,1.79-4.38ZM48.46,3.65c1.8,3.05,3.75,6.87,3.75,8.24,0,2.17-1.8,3.8-3.83,3.75-2.01-.05-3.67-1.69-3.67-3.75,0-1.38,1.95-5.19,3.75-8.24ZM48.46,18.14c.22,0,.44-.01.66-.04.61,2.29,1.12,5.78,1.44,9.9-1.41.18-2.85.18-4.26,0,.32-4.12.82-7.61,1.44-9.9.24.03.48.04.73.04ZM48.43,61.04c-2.02-4.32-2.5-17.33-2.5-22.79,0-.7.02-2.24.02-2.24.03-1.9.09-3.75.19-5.52.77.1,1.55.14,2.33.14s1.51-.05,2.26-.14c.07,1.33.13,2.7.16,4.08.03,1.17.05,2.41.05,3.67,0,5.63-.51,18.53-2.5,22.79ZM57.6,31.24c-.46,1.21-1.66,2.01-2.98,1.98-.43,0-.85,0-1.27,0-.05-1.45-.12-2.88-.21-4.26,0,0,0-.02,0-.02-.28-4.18-.74-7.76-1.32-10.38,5.06,4.09,7.27,8.84,5.79,12.67Z"/>
  <path d="M5.93,34.5c0,.69-.56,1.25-1.25,1.25s-1.25-.56-1.25-1.25.56-1.25,1.25-1.25,1.25.56,1.25,1.25Z"/>
</svg>