<?xml version="1.0" encoding="UTF-8"?>
<svg id="Layer_1" data-name="Layer 1" xmlns="http://www.w3.org/2000/svg" viewBox="0 0 24 24">
  <defs>
    <style>
      .cls-1, .cls-2, .cls-3, .cls-4, .cls-5, .cls-6 {
        stroke-miterlimit: 10;
      }

      .cls-1, .cls-7, .cls-6 {
        fill: #2a333a;
      }

      .cls-1, .cls-3, .cls-4 {
        stroke-width: .15px;
      }

      .cls-1, .cls-4, .cls-5, .cls-6 {
        stroke: #2a333a;
      }

      .cls-8 {
        fill: #fbfcfb;
      }

      .cls-2 {
        stroke: #bbbdbf;
      }

      .cls-2, .cls-9, .cls-4, .cls-5 {
        fill: none;
      }

      .cls-2, .cls-5, .cls-6 {
        stroke-width: .25px;
      }

      .cls-10, .cls-3 {
        fill: #717171;
      }

      .cls-11 {
        fill: #888;
      }

      .cls-12 {
        fill: #bbbdbf;
      }

      .cls-3 {
        stroke: #717171;
      }
    </style>
  </defs>
  <g>
    <path class="cls-8" d="M7.72,21.14l.79.27c.11.66-.9.2-1.22.19-.31,0-.69.22-1.05.13-.15-.51.41-.23.58-.47l.08-4.28-.82-.44h2.43c.02.29-.37.15-.58.31-.49.39-.13,3.51-.21,4.29Z"/>
    <path class="cls-8" d="M10.52,21.59c-.4.01-.78.22-1.2.14-.11-.49.33-.24.57-.48.35-.35.36-3.85.09-4.27-.17-.28-.65-.12-.66-.44h2.27c0,.31-.44.13-.66.39-.2.23-.23,3.45-.15,3.91.09.44.38.57.81.57.12.67-.76.17-1.07.18Z"/>
    <path class="cls-8" d="M15.81,18l-.32,1.92c0-.61-.31-.69-.82-.86l1.14-1.06Z"/>
    <path class="cls-8" d="M16.78,20.6c-.17.26-.21.78-.4.98-.35.36-3.28-.02-3.98.15-.11-.53.52-.22.73-.64.18-.35.15-3.89-.06-4.16-.24-.3-.8-.04-.67-.55.63-.15,1.32.16,1.87.16.44.01,1.81-.5,2,.11l.02.71c-2.8-2.1-2.62.95-2.44,3,.1,1.13.55,1.26,1.64.97.52-.14.79-.65,1.29-.73Z"/>
    <path class="cls-12" d="M23.68,14.77c-.08.34-.17.67-.28.99H.6c-.11-.32-.2-.65-.28-.99h5.04l.15.15h12.08v-.15h6.09Z"/>
    <polygon class="cls-8" points="17.59 14.77 17.59 14.92 5.51 14.92 5.36 14.77 17.59 14.77"/>
    <path class="cls-12" d="M23.99,12.37h0c-.01.38-.03.73-.08,1.09-1.83-.62-4.07-1.42-6.32-2.35-.14-.06-.28-.11-.42-.16-.27-.1-.53-.17-.79-.24-.14-.04-.28-.07-.42-.09-.22-.04-.44-.08-.66-.09-.06-.01-.12-.02-.18-.02-.45-.05-.89-.05-1.31-.02-.16.01-.31.03-.46.05-.22.02-.43.05-.65.09-.16.03-.33.06-.49.1-.01-.01-.02-.01-.03.01-.16.03-.32.07-.47.12-.15.04-.28.08-.42.14,0,0-.03,0-.04.02-.09.03-.19.07-.29.11-.2.08-.4.17-.59.27-.21.1-.41.21-.6.34-.17.1-.33.22-.48.33-.23.17-.45.36-.66.56-.05.05-.1.09-.14.12-.05.04-.09.08-.12.11-.08.07-.12.11-.12.11h-.01c-.09-.08-.67-.58-1.56-1.16-.01,0-.02-.01-.02-.01-.32-.24-.64-.45-.92-.55-1.5-.84-3.51-1.65-5.53-1.5.33-1.74,1.04-3.35,2.04-4.74,1.21-.56,2.6-.94,4.02-.82h.05c1.91.17,3.75.84,5.19,2.13,0,0,.01-.01.03-.04.97-1,1.93-1.93,3.15-2.61.59-.33,2.45-.94,2.72-1.14t.02-.01c.42-.13.88-.28,1.33-.43,1.67,1.14,3.04,2.7,3.96,4.51-2.3-.24-5.22-.27-5.22-.27-2.86-.26-4.91.57-4.91.57-2.82,1.32-4.17,3.36-4.32,3.6-.01.02-.02.03-.02.03l-2.98-1.61s-.23.78.01,1.11c0,.03.03.05.05.07h.01s.04.06.06.07c.04.02.1.06.17.1.43.26,1.35.88,1.96,1.29.08.05.16.11.24.17.23.15.37.25.37.25,0,0,.01-.01.02-.02,1.4-1.22,2.93-1.94,4.55-2.23.02-.02.04-.02.06-.01.08-.02.16-.02.24-.03,1.17-.07,2.07-.05,2.76.01.13,0,.27.03.39.05.47.07.95.17,1.43.31.36.12,4.14,1.49,6.4,2.31Z"/>
    <path class="cls-8" d="M5.74,11.25c.28.1.6.31.92.55-.28-.18-.59-.37-.92-.55Z"/>
    <path class="cls-8" d="M11.51,6.32c-1.44-1.29-3.28-1.96-5.19-2.13.4-.02,3.02-.06,5.19,2.13Z"/>
    <path class="cls-9" d="M6.44,1.36s.04-.03.07-.05h.02"/>
    <path class="cls-8" d="M6.68,11.81c.89.58,1.47,1.08,1.56,1.16-.16,0-.85-.64-1.56-1.16Z"/>
    <path class="cls-8" d="M8.63,12.63c1.41-1.35,3.28-2.04,5.18-2.14-2.52.2-4.41,1.52-5.18,2.14Z"/>
    <path class="cls-8" d="M5.28,10.03c-.24-.33-.01-1.11-.01-1.11-.06.66-.08.95.01,1.11Z"/>
    <path class="cls-8" d="M7.53,11.56c-.61-.41-1.53-1.03-1.96-1.29.13.06.32.15.56.31.48.31.94.64,1.4.98Z"/>
    <path class="cls-8" d="M12.71,9.73c-1.62.29-3.15,1.01-4.55,2.23.23-.23,2.08-1.97,4.55-2.23Z"/>
    <path class="cls-8" d="M15.77,9.7c-.69-.06-1.59-.08-2.76-.01.89-.12,1.82-.12,2.76.01Z"/>
    <path class="cls-8" d="M17.59,10.06c-.48-.14-.96-.24-1.43-.31.73.09,1.17.22,1.43.31Z"/>
    <path class="cls-12" d="M23.92,10.63c-1.58-.56-4.78-1.64-6.34-1.86-.81-.17-1.61-.26-2.41-.29-.2-.02-.4-.03-.6-.04-.28-.01-.56-.02-.83,0-.14,0-.28,0-.42.02-.16,0-.31.01-.46.04-.03-.01-.06-.01-.08.01-.16,0-.32.03-.47.07h-.01c-.75.14-1.44.39-2.01.83-.19.15-.33.25-.43.31-.24.14-.21.06-.01-.16h.01c.08-.09.19-.21.33-.33.06-.06.12-.11.19-.18h.01c.35-.31.79-.68,1.27-1.02.03-.02.05-.04.08-.06.13-.09.26-.18.4-.27.47-.22.96-.44,1.43-.62.01,0,.02,0,.04,0,.43-.15.83-.26,1.14-.26h1.36l1.39-.12h.07c.47.01,3.22.05,5.33.29.04.09.08.17.11.26.47,1.06.78,2.2.91,3.39Z"/>
    <path class="cls-8" d="M13.57,7.08c-.47.18-.96.4-1.43.62.05-.03.1-.07.15-.09.06-.04.11-.07.17-.1.12-.07.24-.14.37-.19.06-.03.13-.06.19-.07.18-.07.36-.13.55-.17Z"/>
    <path class="cls-8" d="M17.58,8.77c-.71-.1-1.54-.23-2.41-.29.8.03,1.6.12,2.41.29Z"/>
    <g>
      <path class="cls-7" d="M.6,15.76c.84,2.54,2.5,4.71,4.67,6.18.31.22.64.42.98.6,1.71.93,3.67,1.46,5.75,1.46,5.31,0,9.82-3.45,11.4-8.24H.6ZM7.72,21.14l.79.27c.11.66-.9.2-1.22.19-.31,0-.69.22-1.05.13-.15-.51.41-.23.58-.47l.08-4.28-.82-.44h2.43c.02.29-.37.15-.58.31-.49.39-.13,3.51-.21,4.29ZM10.52,21.59c-.4.01-.78.22-1.2.14-.11-.49.33-.24.57-.48.35-.35.36-3.85.09-4.27-.17-.28-.65-.12-.66-.44h2.27c0,.31-.44.13-.66.39-.2.23-.23,3.45-.15,3.91.09.44.38.57.81.57.12.67-.76.17-1.07.18ZM16.38,21.58c-.35.36-3.28-.02-3.98.15-.11-.53.52-.22.73-.64.18-.35.15-3.89-.06-4.16-.24-.3-.8-.04-.67-.55.63-.15,1.32.16,1.87.16.44.01,1.81-.5,2,.11l.02.71c-2.8-2.1-2.62.95-2.44,3,.1,1.13.55,1.26,1.64.97.52-.14.79-.65,1.29-.73-.17.26-.21.78-.4.98ZM15.81,18l-.32,1.92c0-.61-.31-.69-.82-.86l1.14-1.06Z"/>
      <path d="M6.66,11.8c-.28-.18-.59-.37-.92-.55.28.1.6.31.92.55Z"/>
      <path d="M13.81,10.49c-2.52.2-4.41,1.52-5.18,2.14,1.41-1.35,3.28-2.04,5.18-2.14Z"/>
      <polygon points="17.59 14.77 17.59 14.92 5.51 14.92 5.36 14.77 17.59 14.77"/>
      <path class="cls-9" d="M6.44,1.36s.04-.03.07-.05h.02"/>
      <path d="M11.51,6.32c-1.44-1.29-3.28-1.96-5.19-2.13.4-.02,3.02-.06,5.19,2.13Z"/>
      <path class="cls-11" d="M13.02,7.25c-.06.01-.13.04-.19.07-.13.05-.25.12-.37.19-.06.03-.11.06-.17.1-.05.02-.1.06-.15.09.47-.22.96-.44,1.43-.62-.19.04-.37.1-.55.17ZM8.16,11.96c1.4-1.22,2.93-1.94,4.55-2.23-2.47.26-4.32,2-4.55,2.23ZM15.17,8.48c.87.06,1.7.19,2.41.29-.81-.17-1.61-.26-2.41-.29ZM16.16,9.75c.47.07.95.17,1.43.31-.26-.09-.7-.22-1.43-.31Z"/>
      <path class="cls-9" d="M6.44,1.36s.04-.03.07-.05h.02"/>
      <path class="cls-12" d="M16.78,20.6c-.17.26-.21.78-.4.98-.35.36-3.28-.02-3.98.15-.11-.53.52-.22.73-.64.18-.35.15-3.89-.06-4.16-.24-.3-.8-.04-.67-.55.63-.15,1.32.16,1.87.16.44.01,1.81-.5,2,.11l.02.71c-2.8-2.1-2.62.95-2.44,3,.1,1.13.55,1.26,1.64.97.52-.14.79-.65,1.29-.73Z"/>
      <path class="cls-12" d="M7.72,21.14l.79.27c.11.66-.9.2-1.22.19-.31,0-.69.22-1.05.13-.15-.51.41-.23.58-.47l.08-4.28-.82-.44h2.43c.02.29-.37.15-.58.31-.49.39-.13,3.51-.21,4.29Z"/>
      <path class="cls-12" d="M10.52,21.59c-.4.01-.78.22-1.2.14-.11-.49.33-.24.57-.48.35-.35.36-3.85.09-4.27-.17-.28-.65-.12-.66-.44h2.27c0,.31-.44.13-.66.39-.2.23-.23,3.45-.15,3.91.09.44.38.57.81.57.12.67-.76.17-1.07.18Z"/>
      <path class="cls-12" d="M15.81,18l-.32,1.92c0-.61-.31-.69-.82-.86l1.14-1.06Z"/>
    </g>
    <path class="cls-1" d="M6.53,1.31C8.17.47,10.03,0,12,0,14.51,0,16.84.77,18.76,2.09c-.45.15-.91.3-1.33.43t-.02.01c-.27.2-2.13.81-2.72,1.14-1.22.68-2.18,1.61-3.15,2.61-.02.03-.03.04-.03.04-2.17-2.19-4.79-2.15-5.19-2.13h-.05c-1.42-.12-2.81.26-4.02.82.82-1.14,1.83-2.13,2.99-2.92.38-.27.74-.51,1.16-.73.01.01.03.01.04,0"/>
    <path class="cls-4" d="M6.44,1.36s.04-.03.07-.05h.02"/>
    <path class="cls-6" d="M23.91,13.46c-.05.45-.13.88-.23,1.31H.32c-.21-.89-.32-1.81-.32-2.77,0-.77.07-1.52.21-2.25,2.02-.15,4.03.66,5.53,1.5.33.18.64.37.92.55,0,0,.01.01.02.01.71.52,1.4,1.16,1.56,1.16h.01s.04-.04.12-.11c.03-.03.07-.07.12-.11.04-.03.09-.07.14-.12.14-.12.33-.26.55-.41.09-.06.18-.13.29-.19.11-.08.24-.15.37-.23.04-.03.08-.06.13-.08.05-.03.09-.06.14-.08.12-.06.24-.13.37-.19.25-.13.51-.24.79-.36.01,0,.02,0,.04,0,.14-.06.29-.11.45-.16.24-.09.5-.16.76-.22.26-.07.54-.12.83-.16.15-.02.3-.04.46-.05.42-.03.86-.03,1.31.02.06,0,.12.01.18.02.22.01.44.05.66.09.14.02.28.05.42.09.26.07.52.14.79.24.14.05.28.1.42.16,2.25.93,4.49,1.73,6.32,2.35Z"/>
    <path class="cls-5" d="M8.24,12.97c-.16,0-.85-.64-1.56-1.16.89.58,1.47,1.08,1.56,1.16Z"/>
    <path class="cls-3" d="M24,12c0,.12,0,.25-.01.37-2.26-.82-6.04-2.19-6.4-2.31-.26-.09-.7-.22-1.43-.31-.12-.02-.26-.04-.39-.05-.94-.13-1.87-.13-2.76-.01-.08.01-.16.01-.24.03-.02-.01-.04-.01-.06.01-2.47.26-4.32,2-4.55,2.23,0,.01-.02.02-.02.02,0,0-.14-.1-.37-.25-.08-.06-.16-.12-.24-.17-.46-.34-.92-.67-1.4-.98-.24-.16-.43-.25-.56-.31-.07-.04-.13-.08-.17-.1-.02-.01-.04-.03-.06-.06h-.01s-.04-.05-.05-.08c-.09-.16-.07-.45-.01-1.11l2.98,1.61s.01-.01.02-.03c.15-.24,1.5-2.28,4.32-3.6,0,0,2.05-.83,4.91-.57,0,0,2.92.03,5.22.27,0,0,.01.01.02.03.05.12.1.23.16.35-2.11-.24-4.86-.28-5.33-.29h-.07l-1.39.12h-1.36c-.31,0-.71.11-1.14.26-.02,0-.03,0-.04,0-.18.03-.37.09-.55.17-.06.02-.13.04-.19.07-.13.05-.25.12-.37.19-.06.03-.11.06-.17.1-.19.1-.37.23-.55.36-.03.02-.05.04-.08.06-.48.34-.92.71-1.27,1.02h-.01c-.07.07-.13.12-.19.18-.14.12-.25.24-.33.33h-.01c-.2.22-.23.3.01.16.1-.06.24-.16.43-.31.57-.44,1.26-.69,2.01-.83h.01c.16-.03.31-.05.47-.07.02-.02.05-.02.08-.01.15-.02.31-.03.46-.04.14-.02.28-.02.42-.02.27-.02.55-.01.83,0,.2.01.4.02.6.04.87.06,1.7.19,2.41.29,1.56.22,4.76,1.3,6.34,1.86.05.45.08.91.08,1.37Z"/>
    <path class="cls-3" d="M12.14,7.7s.1-.07.15-.09c-.19.1-.37.23-.55.36.13-.09.26-.18.4-.27Z"/>
    <line class="cls-4" x1="12.3" y1="8.58" x2="12.3" y2="8.57"/>
    <line class="cls-2" x1="13.42" y1="16.54" x2="15.36" y2="16.54"/>
    <line class="cls-2" x1="13.42" y1="18.84" x2="15.36" y2="18.84"/>
    <line class="cls-2" x1="13.42" y1="18.96" x2="15.36" y2="18.96"/>
    <line class="cls-2" x1="9.71" y1="21.59" x2="11.42" y2="21.59"/>
    <line class="cls-2" x1="6.55" y1="21.59" x2="8.26" y2="21.59"/>
  </g>
  <path class="cls-10" d="M10.39,9.05c.35-.31.79-.68,1.27-1.02-.75.56-1.4,1.24-1.8,1.69-.24.14-.21.06-.01-.16h.01c.08-.09.19-.21.33-.33.06-.06.12-.11.19-.18h.01Z"/>
  <path class="cls-10" d="M23.02,7.25h-.01c-.41-.37-7.4-.54-9.4-.18.43-.15.83-.26,1.14-.26h1.36l1.39-.12h.07c.47.01,3.22.05,5.33.29-.06-.12-.11-.23-.16-.35.1.16.59.94.28.62Z"/>
</svg>