<?xml version="1.0" encoding="UTF-8"?>
<svg id="Layer_1" data-name="Layer 1" xmlns="http://www.w3.org/2000/svg" viewBox="0 0 24 24">
  <defs>
    <style>
      .cls-1 {
        fill: #2a333a;
      }

      .cls-2 {
        fill: #717171;
      }
    </style>
  </defs>
  <path class="cls-1" d="M24,11.52c-.14-.12,0-.31-.09-.46-.02.15,0,.24-.06.37-.18-.07-.02-.38-.16-.46-.06-.04.03-.08.04-.1-.06-.56-.19-1.09-.28-1.63.15-.17-.11-.34-.08-.53-.02-.1-.03-.22-.05-.28.03-.17-.05-.39-.18-.52-.01-.41-.21-.7-.31-1.08l.03-.02c.05.09.18.19.17.32.08.11.1.19.1.29.07.11.13.21.15.34v-.15s.04,0,.04,0c.03-.1-.02-.17-.03-.25l-.05.05s-.05-.04-.07-.06c.03-.01.05-.05.08-.04v-.03s-.08,0-.08,0v.03c0-.34-.3-.69-.36-1.09-.1-.08-.06-.25-.19-.34-.06-.19-.23-.38-.25-.6-.23-.2-.23-.53-.47-.67l.18.29s-.09.08-.01.12c-.04.1.15.18,0,.25-.06,0-.04-.07-.06-.1-.17-.07-.11-.15-.17-.29-.16.04-.18-.19-.31-.28l-.03.02c-.02-.12-.12-.25-.07-.36-.08.03-.14-.1-.24-.1-.18-.21.17-.06.08-.27-.16,0-.37-.04-.43-.24l.06-.04s.05,0,.07,0c-.09-.09-.2-.17-.23-.27-.16-.04-.28-.19-.4-.26-.05-.16-.22-.2-.32-.3.12.19.34.27.41.49.19.08.24.31.39.44.43.71,1.02,1.34,1.29,2.12.06.14.19.25.19.42.34.49.37,1.06.67,1.58-.03.02-.05.06-.08.05.05.09.18.32.05.38-.09-.24-.14-.45-.27-.65-.02.13.11.25.02.38h-.03c-.12-.17-.13-.31-.03-.51-.17-.26-.28-.5-.29-.78.03,0,.04.01.05.03l-.09-.16c-.26.1.02.36-.02.55-.22.14-.08-.3-.23-.25-.21-.15-.09-.34-.28-.5.02-.01.03-.03.05-.02-.08-.2-.22-.39-.3-.55-.08-.28-.28-.39-.24-.68.04,0,.05.04.07.05l-.22-.32v.2c-.06-.04-.13-.14-.12-.24l.08-.02c-.1-.18-.25-.42-.42-.44-.03-.13-.3-.06-.23-.27-.22.04-.02-.28-.23-.22-.15-.03-.08-.29-.25-.22.02-.13-.13-.05-.11-.19-.11.02-.23-.23-.34-.21-.13-.35-.49-.25-.71-.51-.4-.15-.73-.43-1.13-.57l-.03.02c.15.05.31.14.41.26.12-.01.17.16.26.12l.14.14c.29.11.61.26.76.57.26.13.45.45.71.54.28.26.35.58.65.86.01.06.14.06.11.16.17.26.36.63.4.84.13.21.43.36.23.55-.06-.16-.2-.37-.29-.38l.09.13-.03.02s.06,0,.07.03c.06.06.07.19-.02.23-.32-.37-.4-.89-.85-1.13v-.07s-.08.12-.08.12c-.16-.05-.25-.21-.3-.33-.05-.1-.21-.17-.23-.27l-.08.05c-.15-.24-.3-.49-.58-.55l.2.27-.03.02c-.31-.17-.64-.37-.9-.6-.28-.02-.3-.24-.56-.2-.1-.04-.22-.09-.28-.15-.08-.08-.17.02-.19-.12-.24-.05-.46-.13-.68-.24l-.02-.07c-.1.17-.3.02-.47,0,.05.02.11.03.16.05,0,0,0,0,.01,0,.01,0,.02.01.03.02.06.02.11.04.17.06.13.03.27.03.36.15.07.03.14.06.21.09.09,0,.17,0,.22.1.01,0,.02.01.04.02.03-.02.09-.04.11.03,0,0,0,.02,0,.02,3.33,1.7,5.48,5.31,5.13,9.27-.46,5.21-5.05,9.07-10.27,8.61-4.89-.43-8.59-4.51-8.65-9.32-.11-2.23.57-4.57,1.88-6.22,1.27-2.07,3.54-3.41,5.66-4.43.41-.23.9.05,1.28.01,0-.14-.06-.24-.09-.36-1.01-.67-2.11-.45-3.31-.57-.87.22-1.67.62-2.48,1.04C3.76,3.09,1.73,5.59.66,8.3c-.25.85-.52,1.71-.55,2.63-.15.17,0,.44-.11.64.09.81-.09,1.8.17,2.65.02.18.17.32.13.51.43,1.42.9,2.81,1.75,4.1,1.63,2.03,3.69,3.59,6.1,4.3,0,0,.66.04.97.13-.43-.13-.92-.19-1.29-.38l.05-.05c.68.24,1.48.41,2.14.49-.49-.09-.91-.18-1.32-.35-.06-.05-.27-.02-.37-.08-.21-.17-.53-.05-.7-.29.36.05.77.24,1.17.33.25.09.64.17.61.18,0,0,1.03.24,1.47.28.44.04.52.05.98.09.46.04,2.22-.22,3.37-.61-2.02.67-6.41-.12-6.22-.09-.04-.14-.27-.09-.41-.14-.96-.37-1.98-.76-2.82-1.35-.08-.21-.32-.29-.49-.42-.01-.05.03-.07.06-.09.24.11.43.29.66.41.03-.02.06-.06.11-.04l-.09-.11s.06-.06.11-.04c.03.21.26.11.33.28l-.03.02c.09.03.19.19.27.08.24.18.69.34.67.34l.14.06c.07-.12-.1-.07-.09-.16.02-.04.07,0,.1-.01.49.28.99.34,1.53.51.32.19.75.2,1.13.27.05,0,.12-.08.15.01.35.04.76.16,1.14.13.08.21.27-.03.39.06.13-.1.23.03.36-.07.12.11.42-.04.6,0v.03s.33.13.38-.07c.64-.08,1.13-.1,1.73-.3.24.12.53-.1.79-.16l.02.03c-.09.05-.19.1-.29.13.11-.02.23,0,.33-.06.14,0,.17-.2.31-.1.22-.22.52-.09.73-.31l-.02-.03s.05-.06.08-.09c.23.02.39-.17.6-.27,0-.13.13-.14.2-.21l.02.07c1.62-1.15,3.44-2.8,4.3-4.72l-.72,1.21s-1.16,1.65-2.42,2.83v.06c1.2-.98,2.32-2.18,2.97-3.54.19-.36.24-.82.57-1.08l-.05-.06.16-.11-.02-.02c.4-.45.44-1.04.79-1.54-.06-.11-.02-.21-.02-.35.01-.07.09-.14.16-.14-.03-.23.24-.49.21-.71.14-.06.07-.27.21-.36-.3-.36-.07-.81.13-1.14"/>
  <path class="cls-2" d="M12.11,18.73l-.03-.06-4.62-10.24c-.24-.57-.67-.86-1.07-.86s-.48-.05-.48-.24c0-.14.05-.19.19-.19l2.02.05,3.24-.09c.19,0,.26.07.26.19s-.07.12-.36.17l-.88.14c-.5.07-.62.29-.45.64l2.86,6.48,2.99-6.48c.17-.36.05-.57-.45-.64l-.88-.14c-.29-.05-.36-.05-.36-.17s.07-.19.26-.19l1.7.09,2.02-.05c.14,0,.19.05.19.19,0,.19-.07.24-.48.24s-.83.28-1.07.86l-4.62,10.24v.06Z"/>
</svg>