<?xml version="1.0" encoding="UTF-8"?>
<svg id="Layer_1" data-name="Layer 1" xmlns="http://www.w3.org/2000/svg" viewBox="0 0 24 24">
  <defs>
    <style>
      .cls-1 {
        fill: #2a333a;
      }

      .cls-2 {
        fill: #333132;
      }

      .cls-3 {
        fill: #bbbdbf;
      }
    </style>
  </defs>
  <circle id="background" class="cls-1" cx="12" cy="12" r="12"/>
  <path id="shadow" class="cls-2" d="M23.84,13.94c-.63,3.86-3.11,7.17-6.63,8.87l-5.61-5.61-.44-2.05-4.4-4.4,4.19-3.16,2.32,2.32,4.24-2.32,6.34,6.34Z"/>
  <path id="icon" class="cls-3" d="M18,9.48c-.05,1.13-.86,2.68-2.37,4.65-1.46,1.9-2.64,2.84-3.63,3.04-.13.03-.27.04-.4.04-1.03,0-2.04-2.89-2.7-5.32-.35-1.25-.64-1.77-.98-1.76-.32.02-.72.32-1.15.62h-.01c-.14.11-.33.08-.44-.06l-.25-.32c-.11-.13-.09-.33.04-.44l.21-.18c1.34-1.17,2.98-2.5,3.71-2.5.96,0,1.11.52,1.41,1.58.01.05.28,1.21.57,2.36s.63,2.31.77,2.31c.09,0,.38-.38.92-1.23.45-.7.8-1.36.87-1.6.08-.29.07-.51-.05-.66-.15-.19-.44-.24-.66-.24-.17,0-.34.03-.51.07-.13.03-.26-.05-.3-.18-.01-.05,0-.09,0-.14.6-1.66,1.68-2.47,3.2-2.42.54.02.96.18,1.25.5.36.39.53,1.03.5,1.88h0Z"/>
</svg>