<?xml version="1.0" encoding="UTF-8"?>
<svg id="Layer_1" data-name="Layer 1" xmlns="http://www.w3.org/2000/svg" viewBox="0 0 24 24">
  <defs>
    <style>
      .cls-1 {
        fill: #2a333a;
      }

      .cls-2 {
        fill: #333132;
      }

      .cls-3 {
        fill: #bbbdbf;
      }
    </style>
  </defs>
  <circle class="cls-1" cx="12" cy="12" r="12"/>
  <path class="cls-2" d="M18.99,6.07l-3.31-1.34-5.83,5.65-3.52-2.67-1.34.67.02,7.06,8.47,8.47c5.93-.73,10.52-5.78,10.52-11.91,0-.33-.01-.65-.04-.97l-4.97-4.97Z"/>
  <path class="cls-3" d="M18.99,6.07l-3.31-1.34-5.83,5.65-3.52-2.67-1.34.67.02,7.06,1.34.67,3.52-2.67,5.83,5.65,3.31-1.34-.02-11.68ZM6.68,13.4v-2.99l1.65,1.5h.02l-1.67,1.5ZM15.35,14.4l-3.32-2.49h-.02l3.34-2.49v4.98h0Z"/>
</svg>