<?xml version="1.0" encoding="UTF-8"?>
<svg id="Layer_1" data-name="Layer 1" xmlns="http://www.w3.org/2000/svg" viewBox="0 0 24 24">
  <defs>
    <style>
      .cls-1 {
        fill: #2a333a;
      }

      .cls-2 {
        fill: #bbbdbf;
      }
    </style>
  </defs>
  <circle class="cls-2" cx="11.93" cy="11.91" r="11.5"/>
  <path class="cls-2" d="M2.91,7.55l4.53,12.81c-3.17-1.69-5.33-5.03-5.33-8.87,0-1.4.28-2.73.8-3.94Z"/>
  <path class="cls-2" d="M12.03,13.3l2.93,8.31c-.94.28-1.93.44-2.96.44s-2.12-.17-3.09-.48l3.12-8.26Z"/>
  <path class="cls-2" d="M7.2,6.43h-3.56C5.44,3.73,8.51,1.96,12,1.96c2.67,0,5.09,1.04,6.89,2.73-.06,0-.11,0-.17,0-1.06,0-1.92.86-1.92,1.92s3.11,2.55,1.4,7.3l-1.3,3.72-3.61-10.22h1.45v-.98h-6.2v.98h1.4l1.57,4.43-2.03,5.79-3.61-10.22h1.33v-.98Z"/>
  <path class="cls-2" d="M12,.84c-2.09,0-4.04.58-5.72,1.59,1.69-1.08,3.69-1.7,5.84-1.7,5.31,0,9.75,3.8,10.78,8.85C21.78,4.59,17.32.84,12,.84Z"/>
  <path class="cls-2" d="M20.74,7.05c.83,1.47,1.3,3.15,1.3,4.95,0,3.84-2.16,7.17-5.33,8.86l3.46-9.68c.13-.32.24-.64.34-.95l.15-.43h-.04c.22-.95.26-1.91.12-2.76Z"/>
  <path class="cls-1" d="M16.8,6.61c0,1.07,3.11,2.55,1.4,7.3l-1.3,3.72-3.61-10.22h1.45v-.98h-6.2v.98h1.4l1.57,4.43-2.03,5.79-3.61-10.22h1.33v-.98h-3.56C5.44,3.73,8.51,1.96,12,1.96c2.67,0,5.09,1.04,6.89,2.73-.06,0-.11,0-.17,0-1.06,0-1.92.86-1.92,1.92Z"/>
  <path class="cls-1" d="M22.04,12c0,3.84-2.16,7.17-5.33,8.86l3.46-9.68c.13-.32.24-.64.34-.95l.15-.43h-.04c.22-.95.26-1.91.12-2.76.83,1.47,1.3,3.15,1.3,4.95Z"/>
  <path class="cls-1" d="M14.96,21.6c-.94.28-1.93.44-2.96.44s-2.12-.17-3.09-.48l3.12-8.26,2.93,8.31Z"/>
  <path class="cls-1" d="M20.49,3.51C18.22,1.24,15.21,0,12,0S5.78,1.24,3.51,3.51C1.25,5.78,0,8.79,0,12s1.25,6.22,3.52,8.49c2.26,2.26,5.28,3.51,8.48,3.51s6.22-1.24,8.49-3.51c2.26-2.27,3.52-5.29,3.52-8.49s-1.25-6.22-3.52-8.49ZM12,23.16C5.85,23.16.85,18.15.85,12c0-3.93,2.04-7.38,5.11-9.37.1-.07.22-.14.32-.2,1.68-1.01,3.64-1.59,5.72-1.59,5.33,0,9.79,3.75,10.9,8.74,0,.01,0,.04,0,.05.16.77.25,1.56.25,2.37,0,6.15-5.01,11.16-11.16,11.16Z"/>
  <path class="cls-1" d="M7.44,20.36c-3.17-1.69-5.33-5.03-5.33-8.87,0-1.4.28-2.73.8-3.94l4.53,12.81Z"/>
</svg>